<?xml version="1.0" encoding="utf-8"?>
<svg version="1.1" xmlns:xlink="http://www.w3.org/1999/xlink" width="140px" height="40px" xmlns="http://www.w3.org/2000/svg">
  <defs>
    <mask fill="white" id="clip4">
      <path d="M 0 35  L 0 5  C 0 2.1999999999999886  2.1999999999999886 0  5 0  L 57.38461538461536 0  L 135 0  C 137.8 0  140 2.1999999999999886  140 5  L 140 35  C 140 37.80000000000001  137.8 40  135 40  L 90.07692307692304 40  L 5 40  C 2.1999999999999886 40  0 37.80000000000001  0 35  Z " fill-rule="evenodd" />
    </mask>
  </defs>
  <g transform="matrix(1 0 0 1 -233 -254 )">
    <path d="M 0 35  L 0 5  C 0 2.1999999999999886  2.1999999999999886 0  5 0  L 57.38461538461536 0  L 135 0  C 137.8 0  140 2.1999999999999886  140 5  L 140 35  C 140 37.80000000000001  137.8 40  135 40  L 90.07692307692304 40  L 5 40  C 2.1999999999999886 40  0 37.80000000000001  0 35  Z " fill-rule="nonzero" fill="#0000ff" stroke="none" transform="matrix(1 0 0 1 233 254 )" />
    <path d="M 0 35  L 0 5  C 0 2.1999999999999886  2.1999999999999886 0  5 0  L 57.38461538461536 0  L 135 0  C 137.8 0  140 2.1999999999999886  140 5  L 140 35  C 140 37.80000000000001  137.8 40  135 40  L 90.07692307692304 40  L 5 40  C 2.1999999999999886 40  0 37.80000000000001  0 35  Z " stroke-width="2" stroke="#797979" fill="none" transform="matrix(1 0 0 1 233 254 )" mask="url(#clip4)" />
  </g>
</svg>